<svg xmlns="http://www.w3.org/2000/svg" viewBox="0 0 16 16" shape-rendering="crispEdges">
  <rect width="16" height="16" fill="#1a1a1a"/>
  <rect x="3" y="3" width="2" height="2" fill="#ff5577"/>
  <rect x="6" y="3" width="2" height="2" fill="#55aaff"/>
  <rect x="9" y="3" width="2" height="2" fill="#ffd255"/>
  <rect x="12" y="3" width="1" height="2" fill="#88ee88"/>
  <rect x="3" y="6" width="2" height="2" fill="#88ee88"/>
  <rect x="6" y="6" width="2" height="2" fill="#ff5577"/>
  <rect x="9" y="6" width="2" height="2" fill="#55aaff"/>
  <rect x="12" y="6" width="1" height="2" fill="#ffd255"/>
  <rect x="3" y="9" width="2" height="2" fill="#ffd255"/>
  <rect x="6" y="9" width="2" height="2" fill="#88ee88"/>
  <rect x="9" y="9" width="2" height="2" fill="#ff5577"/>
  <rect x="12" y="9" width="1" height="2" fill="#55aaff"/>
  <rect x="3" y="12" width="2" height="1" fill="#55aaff"/>
  <rect x="6" y="12" width="2" height="1" fill="#ffd255"/>
  <rect x="9" y="12" width="2" height="1" fill="#88ee88"/>
  <rect x="12" y="12" width="1" height="1" fill="#ff5577"/>
</svg>
